<mxfile host="65bd71144e">
    <diagram id="05ti3PeLVQivebMXgem_" name="Page-1">
        <mxGraphModel dx="1002" dy="568" grid="1" gridSize="10" guides="1" tooltips="1" connect="1" arrows="1" fold="1" page="1" pageScale="1" pageWidth="850" pageHeight="1100" math="0" shadow="0">
            <root>
                <mxCell id="0"/>
                <mxCell id="1" parent="0"/>
                <mxCell id="2" value="&lt;font style=&quot;font-size: 18px;&quot;&gt;UserClass&lt;/font&gt;" style="swimlane;whiteSpace=wrap;html=1;startSize=40;" parent="1" vertex="1">
                    <mxGeometry x="19" y="110" width="250" height="300" as="geometry"/>
                </mxCell>
                <mxCell id="4" value="&lt;div style=&quot;font-size: 14px;&quot;&gt;&lt;span style=&quot;background-color: initial;&quot;&gt;&lt;font style=&quot;font-size: 14px;&quot;&gt;&amp;nbsp;# Phone: String&lt;/font&gt;&lt;/span&gt;&lt;/div&gt;&lt;div style=&quot;font-size: 14px;&quot;&gt;&lt;font style=&quot;font-size: 14px;&quot;&gt;&lt;span style=&quot;background-color: initial;&quot;&gt;&amp;nbsp;# Systolic:&amp;nbsp;&lt;/span&gt;&lt;span style=&quot;background-color: initial;&quot;&gt;String&lt;/span&gt;&lt;/font&gt;&lt;/div&gt;&lt;div style=&quot;font-size: 14px;&quot;&gt;&lt;font style=&quot;font-size: 14px;&quot;&gt;&lt;span style=&quot;background-color: initial;&quot;&gt;&amp;nbsp;# Diastolic:&lt;/span&gt;&lt;span style=&quot;background-color: initial;&quot;&gt;&amp;nbsp;String&lt;/span&gt;&lt;/font&gt;&lt;/div&gt;&lt;div style=&quot;font-size: 14px;&quot;&gt;&lt;font style=&quot;font-size: 14px;&quot;&gt;&lt;span style=&quot;background-color: initial;&quot;&gt;&amp;nbsp;# Heart_Rate:&amp;nbsp;&lt;/span&gt;&lt;span style=&quot;background-color: initial;&quot;&gt;String&lt;/span&gt;&lt;/font&gt;&lt;/div&gt;&lt;div style=&quot;font-size: 14px;&quot;&gt;&lt;font style=&quot;font-size: 14px;&quot;&gt;&lt;span style=&quot;background-color: initial;&quot;&gt;&amp;nbsp;# Comment:&amp;nbsp;&lt;/span&gt;&lt;span style=&quot;background-color: initial;&quot;&gt;String&lt;/span&gt;&lt;/font&gt;&lt;/div&gt;&lt;div style=&quot;font-size: 14px;&quot;&gt;&lt;span style=&quot;background-color: initial;&quot;&gt;&lt;font style=&quot;font-size: 14px;&quot;&gt;&amp;nbsp;# Time: String&lt;/font&gt;&lt;/span&gt;&lt;/div&gt;" style="rounded=0;whiteSpace=wrap;html=1;align=left;" parent="2" vertex="1">
                    <mxGeometry y="40" width="250" height="120" as="geometry"/>
                </mxCell>
                <mxCell id="5" value="&lt;font style=&quot;font-size: 14px;&quot;&gt;&amp;nbsp;+ getPhone(): String&lt;br&gt;&amp;nbsp;+ getSystolic(): String&lt;br&gt;&amp;nbsp;+ getDiastolic(): String&lt;br&gt;&amp;nbsp;+ getHeartRate():&amp;nbsp;String&lt;br&gt;&amp;nbsp;+ getComment(): String&lt;br&gt;&amp;nbsp;+ getTime(): String&lt;br&gt;&amp;nbsp;+ compareTo(Userclass userclass): int&lt;/font&gt;" style="rounded=0;whiteSpace=wrap;html=1;align=left;" parent="2" vertex="1">
                    <mxGeometry y="160" width="250" height="140" as="geometry"/>
                </mxCell>
                <mxCell id="7" value="&lt;font style=&quot;font-size: 18px;&quot;&gt;RecordList&lt;/font&gt;" style="swimlane;whiteSpace=wrap;html=1;startSize=40;" parent="1" vertex="1">
                    <mxGeometry x="390" y="120" width="320" height="170" as="geometry"/>
                </mxCell>
                <mxCell id="8" value="&lt;div style=&quot;&quot;&gt;&lt;span style=&quot;background-color: initial;&quot;&gt;&lt;font style=&quot;font-size: 14px;&quot;&gt;&amp;nbsp;# arrayList: ArrayList&amp;lt;UserClass&amp;gt;&lt;/font&gt;&lt;/span&gt;&lt;/div&gt;" style="rounded=0;whiteSpace=wrap;html=1;align=left;" parent="7" vertex="1">
                    <mxGeometry y="40" width="320" height="40" as="geometry"/>
                </mxCell>
                <mxCell id="9" value="&lt;font style=&quot;font-size: 14px;&quot;&gt;&amp;nbsp;+ getRecords(): ArrayList&amp;lt;UserClass&amp;gt;&lt;br&gt;&amp;nbsp;+ add(UserClass userClass): void&lt;br&gt;&amp;nbsp;+ delete(UserClass userClass): void&lt;br&gt;&amp;nbsp;+ update(int position, UserClass userClass): void&lt;/font&gt;" style="rounded=0;whiteSpace=wrap;html=1;align=left;" parent="7" vertex="1">
                    <mxGeometry y="80" width="320" height="90" as="geometry"/>
                </mxCell>
                <mxCell id="13" value="&lt;p style=&quot;line-height: 120%; font-size: 32px;&quot;&gt;&lt;b&gt;UML Class Diagram&lt;/b&gt;&lt;/p&gt;" style="text;html=1;strokeColor=none;fillColor=none;align=center;verticalAlign=middle;whiteSpace=wrap;rounded=0;" parent="1" vertex="1">
                    <mxGeometry y="38" width="850" height="30" as="geometry"/>
                </mxCell>
                <mxCell id="14" value="&lt;font style=&quot;font-size: 18px;&quot;&gt;AdapterClass&lt;/font&gt;" style="swimlane;whiteSpace=wrap;html=1;startSize=40;" vertex="1" parent="1">
                    <mxGeometry x="286" y="333" width="550" height="160" as="geometry"/>
                </mxCell>
                <mxCell id="15" value="&lt;font style=&quot;font-size: 14px;&quot;&gt;&amp;nbsp;# context: Context&lt;br&gt;&amp;nbsp;# arrayList: ArrayList&amp;lt;UserClass&amp;gt;&lt;/font&gt;" style="rounded=0;whiteSpace=wrap;html=1;align=left;" vertex="1" parent="14">
                    <mxGeometry y="40" width="550" height="50" as="geometry"/>
                </mxCell>
                <mxCell id="20" value="&lt;font style=&quot;font-size: 14px;&quot;&gt;&amp;nbsp;+ onCreateV&lt;span style=&quot;background-color: initial;&quot;&gt;iewHolder(@NonNull ViewGroup parent, int viewType): MyViewHolder&lt;/span&gt;&lt;br&gt;&amp;nbsp;+ on&lt;/font&gt;&lt;span style=&quot;background-color: initial; font-size: 14px;&quot;&gt;&lt;font style=&quot;font-size: 14px;&quot;&gt;BindViewHolder(@NonNull AdapterClass.MyViewHolder holder, int position): void&lt;br&gt;&amp;nbsp;+ getItemCount(): int&lt;/font&gt;&lt;br&gt;&lt;/span&gt;" style="rounded=0;whiteSpace=wrap;html=1;align=left;" vertex="1" parent="14">
                    <mxGeometry y="90" width="550" height="70" as="geometry"/>
                </mxCell>
                <mxCell id="27" style="edgeStyle=none;html=1;exitX=0;exitY=0.5;exitDx=0;exitDy=0;entryX=0.5;entryY=1;entryDx=0;entryDy=0;fontFamily=Helvetica;fontSize=14;fontColor=#F0F0F0;" edge="1" parent="1" source="20" target="5">
                    <mxGeometry relative="1" as="geometry"/>
                </mxCell>
                <mxCell id="28" value="" style="endArrow=classic;html=1;fontFamily=Helvetica;fontSize=14;fontColor=#F0F0F0;exitX=1;exitY=0.5;exitDx=0;exitDy=0;entryX=0;entryY=0;entryDx=0;entryDy=0;" edge="1" parent="1" source="4" target="9">
                    <mxGeometry width="50" height="50" relative="1" as="geometry">
                        <mxPoint x="400" y="260" as="sourcePoint"/>
                        <mxPoint x="450" y="210" as="targetPoint"/>
                    </mxGeometry>
                </mxCell>
            </root>
        </mxGraphModel>
    </diagram>
</mxfile>